<?xml version="1.0" standalone="no"?>
<!DOCTYPE svg PUBLIC "-//W3C//DTD SVG 20010904//EN"
 "http://www.w3.org/TR/2001/REC-SVG-20010904/DTD/svg10.dtd">
<svg version="1.0" xmlns="http://www.w3.org/2000/svg"
 width="512.000000pt" height="512.000000pt" viewBox="0 0 512.000000 512.000000"
 preserveAspectRatio="xMidYMid meet">
<metadata>
Created by potrace 1.14, written by Peter Selinger 2001-2017
</metadata>
<g transform="translate(0.000000,512.000000) scale(0.100000,-0.100000)"
fill="#000000" stroke="none">
<path d="M2340 5113 c-163 -60 -232 -181 -197 -346 8 -37 7 -38 -13 -27 -27
15 -117 19 -155 8 -126 -39 -205 -144 -205 -272 0 -53 0 -53 -39 -66 -50 -16
-113 -78 -141 -137 -21 -45 -31 -156 -17 -180 4 -6 -7 -16 -23 -23 -32 -13
-95 -77 -111 -113 -9 -20 -16 -22 -74 -19 -110 6 -213 -57 -259 -158 -29 -65
-26 -163 8 -229 24 -49 24 -51 7 -73 -39 -50 -58 -102 -60 -165 -1 -15 -7 -23
-18 -23 -30 0 -120 -58 -147 -93 -58 -75 -75 -182 -43 -259 15 -36 15 -36 -19
-69 -80 -77 -104 -215 -55 -312 14 -26 33 -55 43 -64 17 -15 17 -18 -15 -57
-52 -64 -86 -136 -102 -217 -6 -27 -7 -631 -2 -669 27 -190 194 -356 385 -384
19 -2 35 -6 37 -8 1 -2 8 -34 14 -71 41 -236 177 -490 366 -683 138 -140 266
-227 441 -300 116 -48 209 -72 356 -93 80 -11 457 -12 523 -1 102 17 122 21
194 41 275 74 545 257 713 483 132 177 145 238 60 279 -50 24 -83 9 -129 -61
-208 -318 -485 -505 -827 -556 -133 -21 -461 -18 -580 5 -485 92 -836 440
-942 934 -16 71 -18 162 -19 830 -2 798 -2 806 46 920 73 172 235 297 434 333
17 3 374 5 795 5 678 0 772 -2 827 -16 164 -43 297 -152 372 -304 58 -116 58
-127 56 -948 -2 -412 -5 -767 -8 -787 -5 -31 -1 -43 19 -68 46 -54 134 -35
152 32 5 21 15 32 27 33 49 4 105 18 111 26 3 5 12 9 19 9 24 0 133 80 168
124 19 22 44 61 56 85 47 91 51 133 51 470 0 174 -2 327 -5 341 -13 74 -55
163 -103 220 l-29 34 33 46 c17 25 37 65 44 90 23 87 -10 201 -74 258 -33 29
-33 30 -20 68 33 92 11 204 -55 278 -22 25 -112 76 -133 76 -10 0 -18 8 -19
18 -2 45 -12 81 -33 126 -23 47 -23 49 -6 66 62 62 80 186 39 279 -43 102
-142 163 -260 162 -45 0 -69 3 -69 11 0 19 -67 93 -101 112 -34 18 -34 18 -34
94 -1 59 -6 87 -22 118 -29 55 -89 111 -139 130 l-41 16 -1 67 c0 50 -6 80
-22 112 -60 118 -197 180 -317 144 -43 -13 -44 -13 -37 8 17 54 21 88 13 135
-20 129 -117 219 -246 228 -61 5 -132 -14 -172 -45 -23 -17 -24 -17 -77 11
-52 28 -156 45 -194 31z m128 -209 c51 -58 9 -145 -68 -140 -68 5 -100 51 -79
113 21 64 101 78 147 27z m355 7 c37 -34 38 -88 0 -126 -24 -23 -34 -26 -67
-22 -64 9 -96 68 -69 125 27 55 88 66 136 23z m-708 -382 c18 -34 19 -50 4
-83 -13 -28 -64 -57 -88 -49 -75 23 -98 76 -63 140 27 50 120 45 147 -8z m320
37 c59 -25 74 -92 30 -140 -49 -53 -141 -23 -149 50 -6 48 26 87 82 103 1 1
18 -5 37 -13z m395 -24 c56 -71 -14 -172 -96 -137 -40 17 -54 37 -56 79 -3 83
102 123 152 58z m360 3 c25 -27 30 -86 9 -112 -24 -28 -69 -42 -101 -31 -75
26 -79 132 -6 162 38 16 71 10 98 -19z m-927 -296 c49 -22 61 -91 25 -134 -42
-48 -123 -35 -147 23 -32 77 45 146 122 111z m381 -15 c66 -67 -1 -173 -91
-143 -37 12 -48 28 -56 76 -4 26 0 39 23 63 37 40 86 41 124 4z m351 10 c52
-34 49 -115 -5 -147 -89 -53 -180 68 -104 138 31 29 74 32 109 9z m-1113 -5
c11 -6 26 -26 34 -45 13 -31 13 -39 -2 -69 -40 -84 -164 -56 -164 37 0 68 71
110 132 77z m1491 -4 c21 -9 47 -55 47 -84 0 -31 -48 -81 -78 -81 -46 0 -68
10 -85 40 -22 36 -21 69 1 96 32 40 67 49 115 29z m-1291 -300 c26 -10 50 -53
47 -83 -5 -42 -47 -82 -87 -82 -39 0 -92 45 -92 79 0 73 62 114 132 86z m386
-20 c70 -82 -41 -193 -123 -122 -48 41 -37 118 20 143 40 17 75 10 103 -21z
m358 3 c55 -56 16 -148 -63 -148 -72 0 -113 90 -65 144 37 41 91 42 128 4z
m332 21 c19 -6 36 -23 46 -44 15 -30 15 -38 2 -69 -43 -102 -182 -57 -166 54
3 20 30 50 55 61 27 11 28 11 63 -2z m-1434 -30 c61 -28 54 -128 -11 -155 -57
-24 -123 16 -123 75 0 70 68 110 134 80z m1814 -5 c76 -53 26 -171 -66 -157
-68 11 -96 98 -47 148 30 29 79 33 113 9z m-2124 -169 c57 -53 25 -139 -56
-149 -29 -3 -42 1 -61 20 -32 31 -37 52 -23 94 19 60 93 79 140 35z m2460 -1
c44 -45 28 -122 -29 -144 -35 -13 -88 5 -107 37 -51 89 63 179 136 107z
m-1807 -166 c26 -13 44 -57 36 -90 -10 -42 -43 -68 -85 -68 -97 0 -124 128
-35 165 31 13 44 12 84 -7z m348 9 c28 -9 57 -61 52 -93 -9 -71 -103 -101
-152 -48 -44 47 -25 120 35 142 27 10 33 10 65 -1z m356 3 c19 0 59 -53 59
-77 0 -31 -25 -79 -45 -87 -41 -16 -83 -6 -109 25 -30 36 -32 49 -10 94 16 33
56 57 82 49 8 -2 18 -4 23 -4z m357 1 c28 -2 62 -49 62 -86 0 -80 -92 -116
-149 -60 -36 35 -33 91 7 126 17 15 39 26 49 24 10 -2 24 -4 31 -4z m-1433
-31 c28 -10 56 -63 48 -89 -21 -67 -67 -93 -124 -70 -61 24 -69 116 -12 151
32 20 51 22 88 8z m1811 -2 c95 -43 31 -192 -68 -159 -32 11 -48 29 -61 72 -3
9 2 30 11 48 23 48 67 62 118 39z m-2133 -159 c71 -32 55 -147 -23 -164 -67
-15 -128 60 -98 121 22 47 73 65 121 43z m2477 -14 c23 -21 30 -61 18 -96 -30
-88 -169 -63 -168 30 1 38 13 60 45 79 25 15 82 8 105 -13z m-2693 -276 c51
-27 47 -120 -6 -149 -59 -31 -131 9 -131 72 0 77 66 114 137 77z m2921 -15
c70 -78 -38 -189 -120 -124 -32 25 -41 66 -22 106 28 58 97 67 142 18z m-2983
-357 c23 -33 19 -84 -10 -112 -72 -73 -191 17 -138 105 31 53 113 57 148 7z
m3052 22 c29 -15 47 -68 34 -100 -16 -44 -50 -64 -102 -60 -28 2 -69 51 -69
83 0 76 67 114 137 77z m-3036 -775 c0 -242 0 -483 -1 -536 l0 -97 -47 16
c-65 22 -144 102 -166 167 -15 43 -17 93 -14 375 2 316 3 327 24 366 28 50 49
74 90 103 30 21 104 53 111 47 2 -1 3 -200 3 -441z m3004 399 c59 -37 112
-119 120 -186 4 -29 5 -187 3 -352 l-3 -300 -27 -46 c-32 -55 -85 -103 -135
-124 -69 -29 -64 -60 -64 480 0 270 1 509 1 532 l0 42 31 -9 c16 -5 50 -21 74
-37z"/>
<path d="M2523 2518 c-62 -16 -80 -102 -30 -148 30 -29 89 -26 118 4 65 67 3
168 -88 144z"/>
<path d="M1827 2357 c-32 -6 -60 -21 -84 -43 -32 -30 -35 -38 -30 -70 11 -69
59 -93 138 -70 48 14 61 12 102 -16 15 -11 44 -20 65 -20 29 0 42 7 63 32 50
59 15 128 -84 170 -60 26 -105 31 -170 17z"/>
<path d="M3170 2354 c-45 -13 -99 -45 -124 -73 -40 -44 -17 -122 41 -142 29
-9 40 -7 87 17 53 27 57 27 110 14 64 -15 95 -7 122 35 22 34 12 88 -23 115
-49 38 -146 54 -213 34z"/>
<path d="M1508 2140 c-63 -4 -81 -9 -102 -29 -34 -32 -35 -80 -2 -117 20 -24
32 -28 91 -32 59 -4 74 -9 113 -39 131 -100 317 -125 492 -66 56 19 94 26 110
22 84 -23 140 8 140 79 0 46 -26 74 -89 97 -73 25 -91 25 -155 -2 -175 -75
-308 -62 -420 41 -21 20 -39 36 -40 36 -1 0 -15 3 -31 8 -17 4 -65 5 -107 2z"/>
<path d="M3539 2140 c-35 -4 -57 -15 -87 -42 -116 -105 -251 -120 -422 -47
-58 24 -71 27 -109 18 -23 -5 -60 -18 -82 -29 -121 -62 -44 -209 85 -160 20 7
37 5 71 -10 177 -76 399 -52 531 56 37 30 49 34 98 34 82 0 109 17 129 81 8
25 -22 76 -52 89 -33 13 -98 17 -162 10z"/>
<path d="M2087 1220 c-30 -26 -32 -33 -30 -85 4 -113 76 -219 188 -278 l60
-32 245 0 245 0 66 32 c117 58 188 164 191 286 1 64 -32 101 -88 99 -49 -2
-81 -34 -90 -87 -9 -60 -30 -97 -71 -125 -36 -25 -39 -25 -247 -25 -203 0
-212 1 -248 23 -41 26 -63 62 -73 122 -15 87 -90 122 -148 70z"/>
<path d="M2460 706 c-67 -20 -92 -31 -128 -63 -63 -53 -44 -144 32 -158 26 -5
46 0 91 24 67 36 113 36 173 0 52 -30 96 -29 129 4 42 41 38 91 -11 133 -70
61 -195 87 -286 60z"/>
</g>
</svg>
